<svg preserveAspectRatio="xMidYMid meet" data-bbox="7.3 10.7 377.1 158.4" viewBox="7.3 10.7 377.1 158.4" xmlns="http://www.w3.org/2000/svg" data-type="color" role="presentation" aria-hidden="true">
    <g>
        <path d="M9.5 87.4V73.2l39.1-47H10.9V12.3h57.2V26L28.4 73.4h40.2v14H9.5z" fill="#ffffff" data-color="1"></path>
        <path d="M107.8 10.7c20.4 0 38.6 14.9 38.6 39.2 0 24.1-18.2 39.1-38.6 39.1-20.4 0-38.6-15-38.6-39.1 0-24.2 18.2-39.2 38.6-39.2zm0 64.1c11.6 0 23.5-8 23.5-25 0-16.9-11.9-25-23.5-25-11.5 0-23.4 8-23.4 25 0 16.9 11.8 25 23.4 25z" fill="#ffffff" data-color="1"></path>
        <path d="M153.2 87.4V12.3h26.9c21.4 0 37.1 13.9 37.1 37.6 0 23.7-15.8 37.5-37.2 37.5h-26.8zm26.2-13.6c12.3 0 22.5-7.6 22.5-23.9 0-16.3-10.2-24-22.4-24h-11.8v48h11.7z" fill="#ffffff" data-color="1"></path>
        <path d="M223.9 87.4V12.3h14.8v75.1h-14.8z" fill="#ffffff" data-color="1"></path>
        <path d="M294.6 70.2h-30.5l-6.2 17.1h-15.5l28.8-75.1h16.9l28.6 75.1h-15.9l-6.2-17.1zM269 56.9h20.7l-10.4-28.4L269 56.9z" fill="#ffffff" data-color="1"></path>
        <path d="M311.2 49.9c0-23.9 18.1-39.2 38.2-39.2 20.7 0 31.4 12.7 34.4 24.9L370 39.9c-1.8-7.2-7.6-15.1-20.6-15.1-11.2 0-23.1 8-23.1 25.1 0 16 11.2 24.8 23.3 24.8 12.8 0 19.1-8.4 21.1-15.3l13.7 4.1C381.5 75 370.7 89 349.6 89c-20.9 0-38.4-15.2-38.4-39.1z" fill="#ffffff" data-color="1"></path>
        <path fill="#ffffff" d="M99.1 110.9h-16L63.4 168h16.1l19.6-57.1z" data-color="1"></path>
        <path d="M36.9 169.1c-16.3 0-29.6-13.2-29.6-29.6 0-16.3 13.2-29.6 29.6-29.6s29.6 13.2 29.6 29.6c0 16.4-13.2 29.6-29.6 29.6m15-29.6c0-8.2-6.6-14.8-14.8-14.8s-14.8 6.6-14.8 14.8 6.6 14.8 14.8 14.8 14.8-6.6 14.8-14.8" fill="#ffffff" data-color="1"></path>
        <path d="M127.3 125.1l3.9-.6c.9-.1 1.1-.6 1.1-1.1 0-1.3-.9-2.3-2.9-2.3-1.9 0-3 1.2-3.1 2.7l-3.3-.7c.3-2.6 2.6-5 6.4-5 4.7 0 6.4 2.6 6.4 5.7v7.5c0 1.4.2 2.3.2 2.4h-3.4c0-.1-.2-.7-.2-1.9-.7 1.2-2.2 2.4-4.7 2.4-3.2 0-5.1-2.2-5.1-4.6.1-2.6 2.1-4.1 4.7-4.5zm5 2.4v-.7l-4 .6c-1.1.2-2 .8-2 2.1 0 1 .8 2 2.2 2 2-.1 3.8-1 3.8-4z" fill="#ffffff" data-color="1"></path>
        <path d="M142.6 133.8H139v-15.2h3.5v2c1-1.7 2.8-2.5 4.5-2.5 3.7 0 5.5 2.7 5.5 6v9.6h-3.6v-9c0-1.9-.8-3.4-3.1-3.4-2.1 0-3.1 1.6-3.1 3.6v8.9z" fill="#ffffff" data-color="1"></path>
        <path d="M172.5 111.2c5.8 0 11.2 4.3 11.2 11.5 0 7.3-5.4 11.5-11.2 11.5-5.8 0-11.2-4.3-11.2-11.5s5.4-11.5 11.2-11.5zm0 19.5c3.7 0 7.4-2.6 7.4-8s-3.7-8-7.4-8-7.4 2.6-7.4 8 3.7 8 7.4 8z" fill="#ffffff" data-color="1"></path>
        <path d="M195.1 122.2c-.4-.1-.8-.1-1.2-.1-2.8 0-4.1 1.6-4.1 4.5v7.2h-3.6v-15.2h3.5v2.4c.7-1.7 2.4-2.6 4.4-2.6.4 0 .8.1 1 .1v3.7z" fill="#ffffff" data-color="1"></path>
        <path d="M198.8 110.9c1.3 0 2.4 1.1 2.4 2.4 0 1.3-1.1 2.3-2.4 2.3-1.3 0-2.3-1-2.3-2.3-.1-1.3 1-2.4 2.3-2.4zm-1.8 22.9v-15.2h3.6v15.2H197z" fill="#ffffff" data-color="1"></path>
        <path d="M218.6 126.2c0 4.7-3.3 8.1-7.9 8.1-4.5 0-7.8-3.4-7.8-8.1 0-4.6 3.3-8 7.8-8 4.6 0 7.9 3.4 7.9 8zm-3.6 0c0-3.1-2-4.8-4.2-4.8s-4.2 1.6-4.2 4.8c0 3.1 2 4.8 4.2 4.8s4.2-1.6 4.2-4.8z" fill="#ffffff" data-color="1"></path>
        <path d="M224.6 133.8H221v-15.2h3.5v2c1-1.7 2.8-2.5 4.5-2.5 3.7 0 5.5 2.7 5.5 6v9.6h-3.6v-9c0-1.9-.8-3.4-3.1-3.4-2.1 0-3.1 1.6-3.1 3.6v8.9z" fill="#ffffff" data-color="1"></path>
        <path d="M244.6 133.8v-22.1h3.8v22.1h-3.8z" fill="#ffffff" data-color="1"></path>
        <path d="M255.8 133.8h-3.6v-15.2h3.5v2c1-1.7 2.8-2.5 4.5-2.5 3.7 0 5.5 2.7 5.5 6v9.6h-3.6v-9c0-1.9-.8-3.4-3.1-3.4-2.1 0-3.1 1.6-3.1 3.6v8.9z" fill="#ffffff" data-color="1"></path>
        <path d="M272.6 133.8H269v-15.2h3.5v2c1-1.7 2.8-2.5 4.5-2.5 3.7 0 5.5 2.7 5.5 6v9.6h-3.6v-9c0-1.9-.8-3.4-3.1-3.4-2.1 0-3.1 1.6-3.1 3.6v8.9z" fill="#ffffff" data-color="1"></path>
        <path d="M300.2 126.2c0 4.7-3.3 8.1-7.9 8.1-4.5 0-7.8-3.4-7.8-8.1 0-4.6 3.3-8 7.8-8 4.6 0 7.9 3.4 7.9 8zm-3.6 0c0-3.1-2-4.8-4.2-4.8s-4.2 1.6-4.2 4.8c0 3.1 2 4.8 4.2 4.8s4.2-1.6 4.2-4.8z" fill="#ffffff" data-color="1"></path>
        <path d="M309.8 133.8h-3.6l-6.2-15.2h4l4 10.8 3.9-10.8h3.8l-5.9 15.2z" fill="#ffffff" data-color="1"></path>
        <path d="M320.8 125.1l3.9-.6c.9-.1 1.1-.6 1.1-1.1 0-1.3-.9-2.3-2.9-2.3-1.9 0-3 1.2-3.1 2.7l-3.3-.7c.3-2.6 2.6-5 6.4-5 4.7 0 6.4 2.6 6.4 5.7v7.5c0 1.4.2 2.3.2 2.4h-3.4c0-.1-.2-.7-.2-1.9-.7 1.2-2.2 2.4-4.7 2.4-3.2 0-5.1-2.2-5.1-4.6.2-2.6 2.2-4.1 4.7-4.5zm5.1 2.4v-.7l-4 .6c-1.1.2-2 .8-2 2.1 0 1 .8 2 2.2 2 2-.1 3.8-1 3.8-4z" fill="#ffffff" data-color="1"></path>
        <path d="M337.1 118.6h3.1v3.2h-3.1v7c0 1.3.6 1.9 1.9 1.9.5 0 1.1-.1 1.2-.1v3c-.2.1-.9.3-2.2.3-2.8 0-4.5-1.7-4.5-4.5v-7.6h-2.8v-3.2h.8c1.6 0 2.3-1 2.3-2.4V114h3.3v4.6z" fill="#ffffff" data-color="1"></path>
        <path d="M344.6 110.9c1.3 0 2.4 1.1 2.4 2.4 0 1.3-1.1 2.3-2.4 2.3-1.3 0-2.3-1-2.3-2.3 0-1.3 1-2.4 2.3-2.4zm-1.8 22.9v-15.2h3.6v15.2h-3.6z" fill="#ffffff" data-color="1"></path>
        <path d="M364.5 126.2c0 4.7-3.3 8.1-7.9 8.1-4.5 0-7.8-3.4-7.8-8.1 0-4.6 3.3-8 7.8-8 4.6 0 7.9 3.4 7.9 8zm-3.7 0c0-3.1-2-4.8-4.2-4.8s-4.2 1.6-4.2 4.8c0 3.1 2 4.8 4.2 4.8s4.2-1.6 4.2-4.8z" fill="#ffffff" data-color="1"></path>
        <path d="M370.4 133.8h-3.6v-15.2h3.5v2c1-1.7 2.8-2.5 4.5-2.5 3.7 0 5.5 2.7 5.5 6v9.6h-3.6v-9c0-1.9-.8-3.4-3.1-3.4-2.1 0-3.1 1.6-3.1 3.6v8.9z" fill="#ffffff" data-color="1"></path>
        <path d="M126 154.6c0 3.1 2 4.8 4.2 4.8 2.4 0 3.5-1.7 3.8-2.8l3.2 1.2c-.7 2.4-3 5-7 5-4.5 0-7.8-3.5-7.8-8.1 0-4.7 3.4-8 7.8-8 4.1 0 6.3 2.6 6.9 5l-3.2 1.2c-.3-1.3-1.4-2.8-3.7-2.8-2.2-.2-4.2 1.5-4.2 4.5z" fill="#ffffff" data-color="1"></path>
        <path d="M153.7 154.6c0 4.7-3.3 8.1-7.9 8.1-4.5 0-7.8-3.4-7.8-8.1 0-4.6 3.3-8 7.8-8 4.6 0 7.9 3.4 7.9 8zm-3.6 0c0-3.1-2-4.8-4.2-4.8s-4.2 1.6-4.2 4.8c0 3.1 2 4.8 4.2 4.8 2.2.1 4.2-1.6 4.2-4.8z" fill="#ffffff" data-color="1"></path>
        <path d="M156 162.2V147h3.5v1.9c.9-1.6 2.8-2.4 4.5-2.4 2 0 3.7.9 4.5 2.7 1.2-2 3-2.7 4.9-2.7 2.7 0 5.4 1.7 5.4 5.8v9.8h-3.5V153c0-1.8-.9-3.1-2.9-3.1-1.9 0-3.1 1.5-3.1 3.4v9h-3.6V153c0-1.7-.9-3.1-2.9-3.1-1.9 0-3.1 1.4-3.1 3.4v9H156z" fill="#ffffff" data-color="1"></path>
        <path d="M182.1 168.2v-21.1h3.5v2.1c.7-1.3 2.5-2.4 4.8-2.4 4.5 0 7 3.4 7 7.9s-2.8 8-7.1 8c-2.2 0-3.8-.9-4.6-2.1v7.6h-3.6zm7.6-18.3c-2.4 0-4.1 1.9-4.1 4.7 0 2.9 1.7 4.8 4.1 4.8 2.4 0 4.1-1.9 4.1-4.8 0-2.8-1.7-4.7-4.1-4.7z" fill="#ffffff" data-color="1"></path>
        <path d="M203.4 153.5l3.9-.6c.9-.1 1.1-.6 1.1-1.1 0-1.3-.9-2.3-2.9-2.3-1.9 0-3 1.2-3.1 2.7l-3.3-.7c.3-2.6 2.6-5 6.4-5 4.7 0 6.4 2.6 6.4 5.7v7.5c0 1.4.2 2.3.2 2.4h-3.4c0-.1-.2-.7-.2-1.9-.7 1.2-2.2 2.4-4.7 2.4-3.2 0-5.1-2.2-5.1-4.6.1-2.6 2.1-4.1 4.7-4.5zm5 2.4v-.7l-4 .6c-1.1.2-2 .8-2 2.1 0 1 .8 2 2.2 2 2.1 0 3.8-1 3.8-4z" fill="#ffffff" data-color="1"></path>
        <path d="M218.8 162.2h-3.6V147h3.5v2c1-1.7 2.8-2.5 4.5-2.5 3.7 0 5.5 2.7 5.5 6v9.6H225v-9c0-1.9-.8-3.4-3.1-3.4-2.1 0-3.1 1.6-3.1 3.6v8.9z" fill="#ffffff" data-color="1"></path>
        <path d="M232.5 168.4l3.6-7.9-6.5-13.4h4.1l4.4 9.6 4.1-9.6h3.8l-9.7 21.3h-3.8z" fill="#ffffff" data-color="1"></path>
    </g>
</svg>
